<mxfile host="app.diagrams.net" modified="2021-03-03T13:35:36.166Z" agent="5.0 (Macintosh; Intel Mac OS X 10_15_7) AppleWebKit/537.36 (KHTML, like Gecko) Chrome/88.0.4324.182 Safari/537.36 Edg/88.0.705.81" etag="Hzl4IkUkCwrfiZHw-KSK" version="14.4.3" type="github">
  <diagram id="wP8qA5ngoGfIH-O9ufZR" name="Page-1">
    <mxGraphModel dx="2066" dy="1051" grid="1" gridSize="10" guides="1" tooltips="1" connect="1" arrows="1" fold="1" page="1" pageScale="1" pageWidth="850" pageHeight="1100" math="0" shadow="0">
      <root>
        <mxCell id="0" />
        <mxCell id="1" parent="0" />
        <mxCell id="CneanovkQvf2nwdS3MYU-1" value="&lt;code&gt;trigger&lt;/code&gt;" style="rounded=1;whiteSpace=wrap;html=1;" vertex="1" parent="1">
          <mxGeometry x="100" y="240" width="125" height="60" as="geometry" />
        </mxCell>
        <mxCell id="CneanovkQvf2nwdS3MYU-3" value="TaskQueue" style="shape=process;whiteSpace=wrap;html=1;backgroundOutline=1;size=0.23529411764705882;" vertex="1" parent="1">
          <mxGeometry x="270" y="240" width="170" height="60" as="geometry" />
        </mxCell>
        <mxCell id="CneanovkQvf2nwdS3MYU-17" value="TaskWorker" style="rounded=1;whiteSpace=wrap;html=1;" vertex="1" parent="1">
          <mxGeometry x="530" y="160" width="110" height="50" as="geometry" />
        </mxCell>
        <mxCell id="CneanovkQvf2nwdS3MYU-18" value="" style="endArrow=classic;html=1;exitX=1;exitY=0.5;exitDx=0;exitDy=0;entryX=0;entryY=0.5;entryDx=0;entryDy=0;edgeStyle=orthogonalEdgeStyle;curved=1;" edge="1" parent="1" source="CneanovkQvf2nwdS3MYU-3" target="CneanovkQvf2nwdS3MYU-17">
          <mxGeometry width="50" height="50" relative="1" as="geometry">
            <mxPoint x="470" y="300" as="sourcePoint" />
            <mxPoint x="520" y="250" as="targetPoint" />
          </mxGeometry>
        </mxCell>
        <mxCell id="CneanovkQvf2nwdS3MYU-21" value="TaskWorker" style="rounded=1;whiteSpace=wrap;html=1;" vertex="1" parent="1">
          <mxGeometry x="530" y="245" width="110" height="50" as="geometry" />
        </mxCell>
        <mxCell id="CneanovkQvf2nwdS3MYU-22" value="" style="endArrow=classic;html=1;entryX=0;entryY=0.5;entryDx=0;entryDy=0;edgeStyle=orthogonalEdgeStyle;curved=1;" edge="1" parent="1" target="CneanovkQvf2nwdS3MYU-21">
          <mxGeometry width="50" height="50" relative="1" as="geometry">
            <mxPoint x="440" y="270" as="sourcePoint" />
            <mxPoint x="540" y="195" as="targetPoint" />
          </mxGeometry>
        </mxCell>
        <mxCell id="CneanovkQvf2nwdS3MYU-23" value="TaskWorker" style="rounded=1;whiteSpace=wrap;html=1;" vertex="1" parent="1">
          <mxGeometry x="530" y="330" width="110" height="50" as="geometry" />
        </mxCell>
        <mxCell id="CneanovkQvf2nwdS3MYU-24" value="" style="endArrow=classic;html=1;entryX=0;entryY=0.5;entryDx=0;entryDy=0;edgeStyle=orthogonalEdgeStyle;curved=1;" edge="1" parent="1" target="CneanovkQvf2nwdS3MYU-23">
          <mxGeometry width="50" height="50" relative="1" as="geometry">
            <mxPoint x="442" y="270" as="sourcePoint" />
            <mxPoint x="540" y="280" as="targetPoint" />
          </mxGeometry>
        </mxCell>
        <mxCell id="CneanovkQvf2nwdS3MYU-25" value="" style="endArrow=classic;html=1;exitX=1;exitY=0.25;exitDx=0;exitDy=0;entryX=0;entryY=0.25;entryDx=0;entryDy=0;" edge="1" parent="1" source="CneanovkQvf2nwdS3MYU-1" target="CneanovkQvf2nwdS3MYU-3">
          <mxGeometry width="50" height="50" relative="1" as="geometry">
            <mxPoint x="270" y="380" as="sourcePoint" />
            <mxPoint x="320" y="330" as="targetPoint" />
          </mxGeometry>
        </mxCell>
        <mxCell id="CneanovkQvf2nwdS3MYU-26" value="" style="endArrow=classic;html=1;entryX=1;entryY=0.75;entryDx=0;entryDy=0;exitX=0;exitY=0.75;exitDx=0;exitDy=0;" edge="1" parent="1" source="CneanovkQvf2nwdS3MYU-3" target="CneanovkQvf2nwdS3MYU-1">
          <mxGeometry width="50" height="50" relative="1" as="geometry">
            <mxPoint x="280" y="410" as="sourcePoint" />
            <mxPoint x="330" y="360" as="targetPoint" />
          </mxGeometry>
        </mxCell>
        <mxCell id="CneanovkQvf2nwdS3MYU-27" value="push" style="text;html=1;strokeColor=none;fillColor=none;align=center;verticalAlign=middle;whiteSpace=wrap;rounded=0;" vertex="1" parent="1">
          <mxGeometry x="270" y="260" width="40" height="20" as="geometry" />
        </mxCell>
        <mxCell id="CneanovkQvf2nwdS3MYU-28" value="pop" style="text;html=1;strokeColor=none;fillColor=none;align=center;verticalAlign=middle;whiteSpace=wrap;rounded=0;" vertex="1" parent="1">
          <mxGeometry x="400" y="260" width="40" height="20" as="geometry" />
        </mxCell>
        <mxCell id="CneanovkQvf2nwdS3MYU-29" value="Cache" style="shape=cylinder3;whiteSpace=wrap;html=1;boundedLbl=1;backgroundOutline=1;size=15;" vertex="1" parent="1">
          <mxGeometry x="710" y="220" width="70" height="100" as="geometry" />
        </mxCell>
        <mxCell id="CneanovkQvf2nwdS3MYU-30" value="" style="endArrow=classic;html=1;entryX=0;entryY=0.5;entryDx=0;entryDy=0;entryPerimeter=0;edgeStyle=orthogonalEdgeStyle;curved=1;" edge="1" parent="1" source="CneanovkQvf2nwdS3MYU-17" target="CneanovkQvf2nwdS3MYU-29">
          <mxGeometry width="50" height="50" relative="1" as="geometry">
            <mxPoint x="670" y="190" as="sourcePoint" />
            <mxPoint x="720" y="140" as="targetPoint" />
          </mxGeometry>
        </mxCell>
        <mxCell id="CneanovkQvf2nwdS3MYU-31" value="" style="endArrow=classic;html=1;entryX=0;entryY=0.5;entryDx=0;entryDy=0;entryPerimeter=0;exitX=1;exitY=0.5;exitDx=0;exitDy=0;" edge="1" parent="1" source="CneanovkQvf2nwdS3MYU-21" target="CneanovkQvf2nwdS3MYU-29">
          <mxGeometry width="50" height="50" relative="1" as="geometry">
            <mxPoint x="650" y="195" as="sourcePoint" />
            <mxPoint x="720" y="280" as="targetPoint" />
          </mxGeometry>
        </mxCell>
        <mxCell id="CneanovkQvf2nwdS3MYU-32" value="" style="endArrow=classic;html=1;entryX=0;entryY=0.5;entryDx=0;entryDy=0;entryPerimeter=0;edgeStyle=orthogonalEdgeStyle;curved=1;exitX=1;exitY=0.5;exitDx=0;exitDy=0;" edge="1" parent="1" source="CneanovkQvf2nwdS3MYU-23" target="CneanovkQvf2nwdS3MYU-29">
          <mxGeometry width="50" height="50" relative="1" as="geometry">
            <mxPoint x="660" y="350" as="sourcePoint" />
            <mxPoint x="730" y="435" as="targetPoint" />
          </mxGeometry>
        </mxCell>
        <mxCell id="CneanovkQvf2nwdS3MYU-36" value="" style="rounded=0;whiteSpace=wrap;html=1;dashed=1;fillColor=none;" vertex="1" parent="1">
          <mxGeometry x="450" y="135" width="250" height="305" as="geometry" />
        </mxCell>
        <mxCell id="CneanovkQvf2nwdS3MYU-37" value="Worker Thread Pool&amp;nbsp;" style="text;html=1;strokeColor=none;fillColor=none;align=center;verticalAlign=middle;whiteSpace=wrap;rounded=0;" vertex="1" parent="1">
          <mxGeometry x="520" y="400" width="140" height="20" as="geometry" />
        </mxCell>
      </root>
    </mxGraphModel>
  </diagram>
</mxfile>
